<svg xmlns="http://www.w3.org/2000/svg" viewBox="0 0 488 512"><path d="M488 261.8C488 403.3 381.5 512 248 512A248 248 0 0 1 0 264 248 248 0 0 1 248 16c114.2 0 211.9 81.2 232.8 186.2l-100.3 35.1c-16.2-48.4-59-82.9-112.5-82.9-65.7 0-119.1 53.4-119.1 119.1s53.4 119.1 119.1 119.1c52.5 0 96.2-34.2 112.5-82.9l100.3 35.1zM488 261.8c0-15.6-1.5-30.8-4.4-45.5H248v88.9h135.2c-5.4 35.2-24.1 63.8-51.6 82.9-32.2 22.3-72.3 35.1-115.6 35.1-134.1 0-242.9-108.8-242.9-242.9S113.9 16 248 16c68.3 0 129.8 27.6 174.9 72.9l75.3-75.3C430.2 27.6 346.8 0 248 0 111 0 0 111 0 248s111 248 248 248c73.6 0 137.9-21.5 188.4-58.4 47.9-35.1 81.6-87.8 81.6-149.8z"/></svg>